<mxfile host="app.diagrams.net" modified="2022-03-09T14:10:32.182Z" agent="5.0 (Windows NT 10.0; Win64; x64) AppleWebKit/537.36 (KHTML, like Gecko) Chrome/99.0.4844.51 Safari/537.36" etag="kd1YDO6uFP4pAUzYyIt4" version="17.0.0" type="github">
  <diagram id="R5StmVLRlRWRDXSsuDTS" name="Page-1">
    <mxGraphModel dx="1209" dy="1957" grid="1" gridSize="10" guides="1" tooltips="1" connect="1" arrows="1" fold="1" page="1" pageScale="1" pageWidth="827" pageHeight="1169" math="0" shadow="0">
      <root>
        <mxCell id="0" />
        <mxCell id="1" parent="0" />
        <mxCell id="WYDO5iYWSvS-bf2MBAiD-11" style="edgeStyle=orthogonalEdgeStyle;rounded=0;orthogonalLoop=1;jettySize=auto;html=1;" edge="1" parent="1" target="WYDO5iYWSvS-bf2MBAiD-7">
          <mxGeometry relative="1" as="geometry">
            <mxPoint x="400" y="165" as="sourcePoint" />
          </mxGeometry>
        </mxCell>
        <mxCell id="WYDO5iYWSvS-bf2MBAiD-17" style="edgeStyle=orthogonalEdgeStyle;rounded=0;orthogonalLoop=1;jettySize=auto;html=1;exitX=1;exitY=0.5;exitDx=0;exitDy=0;" edge="1" parent="1" source="WYDO5iYWSvS-bf2MBAiD-20" target="WYDO5iYWSvS-bf2MBAiD-19">
          <mxGeometry relative="1" as="geometry">
            <mxPoint x="620" y="125" as="targetPoint" />
            <mxPoint x="440" y="125" as="sourcePoint" />
            <Array as="points">
              <mxPoint x="440" y="133" />
              <mxPoint x="440" y="140" />
            </Array>
          </mxGeometry>
        </mxCell>
        <mxCell id="WYDO5iYWSvS-bf2MBAiD-18" value="&lt;pre style=&quot;color: rgb(8 , 8 , 8) ; font-family: &amp;#34;jetbrains mono&amp;#34; , monospace ; font-size: 9.8pt&quot;&gt;&lt;span style=&quot;color: #8c8c8c ; font-style: italic&quot;&gt;if the sending window is full&lt;/span&gt;&lt;/pre&gt;" style="edgeLabel;html=1;align=center;verticalAlign=middle;resizable=0;points=[];" vertex="1" connectable="0" parent="WYDO5iYWSvS-bf2MBAiD-17">
          <mxGeometry x="-0.2578" y="-5" relative="1" as="geometry">
            <mxPoint x="34" y="-30" as="offset" />
          </mxGeometry>
        </mxCell>
        <mxCell id="WYDO5iYWSvS-bf2MBAiD-3" value="&lt;pre style=&quot;background-color: #ffffff ; color: #080808 ; font-family: &amp;#34;jetbrains mono&amp;#34; , monospace ; font-size: 9.8pt&quot;&gt;&lt;span style=&quot;color: #8c8c8c ; font-style: italic&quot;&gt;if the sending window is not full&lt;br&gt;&lt;/span&gt;&lt;/pre&gt;" style="text;html=1;align=center;verticalAlign=middle;resizable=0;points=[];autosize=1;strokeColor=none;fillColor=none;" vertex="1" parent="1">
          <mxGeometry x="285" y="165" width="250" height="50" as="geometry" />
        </mxCell>
        <mxCell id="WYDO5iYWSvS-bf2MBAiD-12" style="edgeStyle=orthogonalEdgeStyle;rounded=0;orthogonalLoop=1;jettySize=auto;html=1;" edge="1" parent="1" source="WYDO5iYWSvS-bf2MBAiD-7" target="WYDO5iYWSvS-bf2MBAiD-8">
          <mxGeometry relative="1" as="geometry" />
        </mxCell>
        <mxCell id="WYDO5iYWSvS-bf2MBAiD-7" value="&lt;pre style=&quot;background-color: #ffffff ; color: #080808 ; font-family: &amp;#34;jetbrains mono&amp;#34; , monospace ; font-size: 9.8pt&quot;&gt;&lt;span style=&quot;color: #8c8c8c ; font-style: italic&quot;&gt;Make the packet header&lt;/span&gt;&lt;/pre&gt;" style="text;html=1;align=center;verticalAlign=middle;resizable=0;points=[];autosize=1;strokeColor=none;fillColor=none;" vertex="1" parent="1">
          <mxGeometry x="315" y="230" width="170" height="50" as="geometry" />
        </mxCell>
        <mxCell id="WYDO5iYWSvS-bf2MBAiD-10" value="" style="edgeStyle=orthogonalEdgeStyle;rounded=0;orthogonalLoop=1;jettySize=auto;html=1;" edge="1" parent="1" source="WYDO5iYWSvS-bf2MBAiD-8" target="WYDO5iYWSvS-bf2MBAiD-9">
          <mxGeometry relative="1" as="geometry" />
        </mxCell>
        <mxCell id="WYDO5iYWSvS-bf2MBAiD-8" value="&lt;pre style=&quot;background-color: #ffffff ; color: #080808 ; font-family: &amp;#34;jetbrains mono&amp;#34; , monospace ; font-size: 9.8pt&quot;&gt;&lt;span style=&quot;color: #8c8c8c ; font-style: italic&quot;&gt;Send to layer 3&lt;br&gt;&lt;/span&gt;&lt;/pre&gt;" style="text;html=1;align=center;verticalAlign=middle;resizable=0;points=[];autosize=1;strokeColor=none;fillColor=none;" vertex="1" parent="1">
          <mxGeometry x="340" y="310" width="120" height="50" as="geometry" />
        </mxCell>
        <mxCell id="WYDO5iYWSvS-bf2MBAiD-14" value="" style="edgeStyle=orthogonalEdgeStyle;rounded=0;orthogonalLoop=1;jettySize=auto;html=1;" edge="1" parent="1" source="WYDO5iYWSvS-bf2MBAiD-9">
          <mxGeometry relative="1" as="geometry">
            <mxPoint x="400" y="480" as="targetPoint" />
          </mxGeometry>
        </mxCell>
        <mxCell id="WYDO5iYWSvS-bf2MBAiD-9" value="&lt;pre style=&quot;background-color: #ffffff ; color: #080808 ; font-family: &amp;#34;jetbrains mono&amp;#34; , monospace ; font-size: 9.8pt&quot;&gt;&lt;span style=&quot;color: #8c8c8c ; font-style: italic&quot;&gt;Copy the packet to window packet buffer&lt;/span&gt;&lt;/pre&gt;" style="text;html=1;align=center;verticalAlign=middle;resizable=0;points=[];autosize=1;strokeColor=none;fillColor=none;" vertex="1" parent="1">
          <mxGeometry x="250" y="380" width="300" height="50" as="geometry" />
        </mxCell>
        <mxCell id="WYDO5iYWSvS-bf2MBAiD-15" value="&lt;pre style=&quot;color: rgb(8 , 8 , 8) ; font-size: 9.8pt ; font-family: &amp;#34;jetbrains mono&amp;#34; , monospace&quot;&gt;&lt;span style=&quot;color: rgb(140 , 140 , 140) ; font-style: italic&quot;&gt;if it is the first packet in the window&lt;/span&gt;&lt;/pre&gt;" style="text;html=1;align=center;verticalAlign=middle;resizable=0;points=[];autosize=1;strokeColor=none;fillColor=none;" vertex="1" parent="1">
          <mxGeometry x="100" y="510" width="300" height="50" as="geometry" />
        </mxCell>
        <mxCell id="WYDO5iYWSvS-bf2MBAiD-30" style="edgeStyle=orthogonalEdgeStyle;rounded=0;orthogonalLoop=1;jettySize=auto;html=1;exitX=0.5;exitY=0;exitDx=0;exitDy=0;" edge="1" parent="1" source="WYDO5iYWSvS-bf2MBAiD-19">
          <mxGeometry relative="1" as="geometry">
            <mxPoint x="710" y="60" as="targetPoint" />
          </mxGeometry>
        </mxCell>
        <mxCell id="WYDO5iYWSvS-bf2MBAiD-34" style="edgeStyle=orthogonalEdgeStyle;rounded=0;orthogonalLoop=1;jettySize=auto;html=1;" edge="1" parent="1" source="WYDO5iYWSvS-bf2MBAiD-19">
          <mxGeometry relative="1" as="geometry">
            <mxPoint x="780" y="100" as="targetPoint" />
          </mxGeometry>
        </mxCell>
        <mxCell id="WYDO5iYWSvS-bf2MBAiD-19" value="" style="rhombus;whiteSpace=wrap;html=1;" vertex="1" parent="1">
          <mxGeometry x="690" y="80" width="40" height="40" as="geometry" />
        </mxCell>
        <mxCell id="WYDO5iYWSvS-bf2MBAiD-20" value="" style="rhombus;whiteSpace=wrap;html=1;" vertex="1" parent="1">
          <mxGeometry x="370" y="100" width="60" height="65" as="geometry" />
        </mxCell>
        <mxCell id="WYDO5iYWSvS-bf2MBAiD-22" style="edgeStyle=orthogonalEdgeStyle;rounded=0;orthogonalLoop=1;jettySize=auto;html=1;entryX=0.5;entryY=0;entryDx=0;entryDy=0;" edge="1" parent="1" source="WYDO5iYWSvS-bf2MBAiD-21" target="WYDO5iYWSvS-bf2MBAiD-20">
          <mxGeometry relative="1" as="geometry" />
        </mxCell>
        <mxCell id="WYDO5iYWSvS-bf2MBAiD-21" value="A_Output" style="whiteSpace=wrap;html=1;aspect=fixed;" vertex="1" parent="1">
          <mxGeometry x="360" y="-30" width="80" height="80" as="geometry" />
        </mxCell>
        <mxCell id="WYDO5iYWSvS-bf2MBAiD-26" style="edgeStyle=orthogonalEdgeStyle;rounded=0;orthogonalLoop=1;jettySize=auto;html=1;" edge="1" parent="1" source="WYDO5iYWSvS-bf2MBAiD-23" target="WYDO5iYWSvS-bf2MBAiD-25">
          <mxGeometry relative="1" as="geometry" />
        </mxCell>
        <mxCell id="WYDO5iYWSvS-bf2MBAiD-27" style="edgeStyle=orthogonalEdgeStyle;rounded=0;orthogonalLoop=1;jettySize=auto;html=1;exitX=1;exitY=0.5;exitDx=0;exitDy=0;" edge="1" parent="1" source="WYDO5iYWSvS-bf2MBAiD-23">
          <mxGeometry relative="1" as="geometry">
            <mxPoint x="470" y="500" as="targetPoint" />
          </mxGeometry>
        </mxCell>
        <mxCell id="WYDO5iYWSvS-bf2MBAiD-23" value="" style="rhombus;whiteSpace=wrap;html=1;" vertex="1" parent="1">
          <mxGeometry x="375" y="480" width="50" height="40" as="geometry" />
        </mxCell>
        <mxCell id="WYDO5iYWSvS-bf2MBAiD-29" style="edgeStyle=orthogonalEdgeStyle;rounded=0;orthogonalLoop=1;jettySize=auto;html=1;" edge="1" parent="1" source="WYDO5iYWSvS-bf2MBAiD-25">
          <mxGeometry relative="1" as="geometry">
            <mxPoint x="520" y="520" as="targetPoint" />
          </mxGeometry>
        </mxCell>
        <mxCell id="WYDO5iYWSvS-bf2MBAiD-25" value="&lt;pre style=&quot;background-color: #ffffff ; color: #080808 ; font-family: &amp;#34;jetbrains mono&amp;#34; , monospace ; font-size: 9.8pt&quot;&gt;&lt;span style=&quot;color: #8c8c8c ; font-style: italic&quot;&gt;set the timer&lt;/span&gt;&lt;/pre&gt;" style="text;html=1;align=center;verticalAlign=middle;resizable=0;points=[];autosize=1;strokeColor=none;fillColor=none;" vertex="1" parent="1">
          <mxGeometry x="345" y="550" width="110" height="50" as="geometry" />
        </mxCell>
        <mxCell id="WYDO5iYWSvS-bf2MBAiD-28" value="&amp;nbsp;end A_output" style="text;html=1;align=center;verticalAlign=middle;resizable=0;points=[];autosize=1;strokeColor=none;fillColor=none;" vertex="1" parent="1">
          <mxGeometry x="470" y="490" width="90" height="20" as="geometry" />
        </mxCell>
        <mxCell id="WYDO5iYWSvS-bf2MBAiD-32" style="edgeStyle=orthogonalEdgeStyle;rounded=0;orthogonalLoop=1;jettySize=auto;html=1;" edge="1" parent="1" source="WYDO5iYWSvS-bf2MBAiD-31">
          <mxGeometry relative="1" as="geometry">
            <mxPoint x="710" y="-10" as="targetPoint" />
          </mxGeometry>
        </mxCell>
        <mxCell id="WYDO5iYWSvS-bf2MBAiD-31" value="&lt;pre style=&quot;background-color: #ffffff ; color: #080808 ; font-family: &amp;#34;jetbrains mono&amp;#34; , monospace ; font-size: 9.8pt&quot;&gt;&lt;span style=&quot;color: #8c8c8c ; font-style: italic&quot;&gt;If buffer is not full then&lt;/span&gt;&lt;/pre&gt;" style="text;html=1;align=center;verticalAlign=middle;resizable=0;points=[];autosize=1;strokeColor=none;fillColor=none;" vertex="1" parent="1">
          <mxGeometry x="610" y="15" width="200" height="50" as="geometry" />
        </mxCell>
        <mxCell id="WYDO5iYWSvS-bf2MBAiD-38" style="edgeStyle=orthogonalEdgeStyle;rounded=0;orthogonalLoop=1;jettySize=auto;html=1;entryX=1.004;entryY=0.55;entryDx=0;entryDy=0;entryPerimeter=0;" edge="1" parent="1" source="WYDO5iYWSvS-bf2MBAiD-33" target="WYDO5iYWSvS-bf2MBAiD-28">
          <mxGeometry relative="1" as="geometry">
            <Array as="points">
              <mxPoint x="900" y="501" />
            </Array>
          </mxGeometry>
        </mxCell>
        <mxCell id="WYDO5iYWSvS-bf2MBAiD-33" value="&lt;pre style=&quot;background-color: #ffffff ; color: #080808 ; font-family: &amp;#34;jetbrains mono&amp;#34; , monospace ; font-size: 9.8pt&quot;&gt;&lt;span style=&quot;color: #8c8c8c ; font-style: italic&quot;&gt;Print a message to indicate the packet is buffered and &lt;br&gt;&lt;/span&gt;Put the packet at the end of buffer bufrear&lt;/pre&gt;" style="text;html=1;align=center;verticalAlign=middle;resizable=0;points=[];autosize=1;strokeColor=none;fillColor=none;" vertex="1" parent="1">
          <mxGeometry x="505" y="-65" width="410" height="60" as="geometry" />
        </mxCell>
        <mxCell id="WYDO5iYWSvS-bf2MBAiD-35" value="&lt;pre style=&quot;background-color: #ffffff ; color: #080808 ; font-family: &amp;#34;jetbrains mono&amp;#34; , monospace ; font-size: 9.8pt&quot;&gt;&lt;span style=&quot;color: #8c8c8c ; font-style: italic&quot;&gt;if it is full&lt;/span&gt;&lt;/pre&gt;" style="text;html=1;align=center;verticalAlign=middle;resizable=0;points=[];autosize=1;strokeColor=none;fillColor=none;" vertex="1" parent="1">
          <mxGeometry x="717" y="90" width="110" height="50" as="geometry" />
        </mxCell>
        <mxCell id="WYDO5iYWSvS-bf2MBAiD-36" value="exit the program" style="text;html=1;align=center;verticalAlign=middle;resizable=0;points=[];autosize=1;strokeColor=none;fillColor=none;" vertex="1" parent="1">
          <mxGeometry x="780" y="90" width="100" height="20" as="geometry" />
        </mxCell>
      </root>
    </mxGraphModel>
  </diagram>
</mxfile>
